<mxfile host="app.diagrams.net" modified="2023-10-25T05:58:49.597Z" agent="Mozilla/5.0 (Windows NT 10.0; Win64; x64) AppleWebKit/537.36 (KHTML, like Gecko) Chrome/118.0.0.0 Safari/537.36" version="22.0.7" etag="7ZvJmB2DvoSjkpnBaRIy" type="github">
  <diagram name="第 1 页" id="ms7cmBtQCjfg9Er-cUNL">
    <mxGraphModel>
      <root>
        <mxCell id="0" />
        <mxCell id="1" parent="0" />
      </root>
    </mxGraphModel>
  </diagram>
</mxfile>
